<svg xmlns="http://www.w3.org/2000/svg" xmlns:xlink="http://www.w3.org/1999/xlink" version="1.1" id="_x2018_лой_x5F_1" x="0px" y="0px" viewBox="0 0 3300 2000" enable-background="new 0 0 3300 2000" xml:space="preserve">
<rect x="1.25" y="2" fill="#FFFFFF" width="3300" height="2000"/>
<polygon fill="#DEADB2" points="2506.433,530.765 2495.625,563.586 2524.583,569.038 2526.979,529.265 "/>
<path fill="#1E0F00" d="M2624.197,1806.595c-38.848-1.679-40.336,37.833-40.336,37.833h32.983h14.705h31.736  C2663.286,1844.428,2663.043,1804.917,2624.197,1806.595z"/>
<path fill="#1E0F00" d="M2816.298,1806.595c-38.848-1.679-40.336,37.833-40.336,37.833h32.983h14.705h31.736  C2855.387,1844.428,2855.145,1804.917,2816.298,1806.595z"/>
<path fill="#0E538B" d="M2739.723,1193.988c0,0-1.031,9.503-2.633,24.41c-2.35,21.766-5.916,55.049-9.277,87.173  c-3.646,34.786-7.065,68.208-8.432,84.127c-0.451,5.189-1.543,15.86-3.115,30.541l-0.049,0.512  c-10.809,100.979-43.689,388.363-43.689,388.363s-81.582,3.94-98.848,0c-12.656-2.88,12.304-343.406,26.553-525.201  c5.188-66.311,8.962-111.504,8.962-111.504L2739.723,1193.988z"/>
<path fill="#0A4A6F" d="M2833.781,1182.779c0,0,43.41,622.408,26.14,626.339c-17.27,3.932-98.848,0-98.848,0  s-43.069-404.032-46.584-444.718c-3.514-40.686-20.617-170.415-20.617-170.415L2833.781,1182.779z"/>
<path fill="#0E538B" d="M2739.723,1218.408v81.798c0,0-7.203,1.031-11.91,5.365c-1.778,1.621-3.203,3.725-3.744,6.427  c-1.965,9.827-7.803,108.241-7.803,108.241l-0.049,0.512c-10.809,100.979-43.689,388.363-43.689,388.363s-81.582,3.94-98.848,0  c-12.656-2.88,12.304-343.406,26.553-525.201l3.635-65.879l133.223,0.364L2739.723,1218.408z"/>
<path fill="#1E0F00" d="M2614.272,1258.788c39.643,0,55.21-30.122,55.21-30.122c-0.168,0.287-17.234,28.69-56.614,27.992  l-0.037,2.117C2613.313,1258.784,2613.797,1258.788,2614.272,1258.788z"/>
<path fill="#0A4A6F" d="M2575.69,1774.043c10.688-50.13,20.309-109.504,26.875-171.32c1.004-9.449,1.972-19.171,2.878-28.892  c0.997-10.724,1.934-21.581,2.784-32.27c0.292-3.672-0.659-7.869-1.58-11.926c-0.855-3.775-1.74-7.676-1.514-10.843  c2.906-40.631,3.591-77.768,4.195-110.531c0.158-8.594,0.313-17.003,0.502-25.254c1.704-74.51,2.962-116.742,3-117.159l0,0  c-0.039,0.416-3.966,42.541-5.674,117.154c-0.188,8.252-0.344,16.666-0.502,25.263c-0.604,32.733-1.288,69.832-4.189,110.398  c-0.253,3.538,0.676,7.626,1.57,11.577c0.879,3.876,1.787,7.881,1.525,11.17c-0.848,10.68-1.784,21.523-2.781,32.236  c-0.904,9.71-1.871,19.42-2.874,28.858c-6.557,61.729-14.317,121.557-24.985,171.602L2575.69,1774.043z"/>
<polygon fill="#DEADB2" points="2896.604,571.701 2877.661,529.438 2863.402,531.681 2869.433,581.173 "/>
<g>
	<path fill="#C88D94" d="M2753.718,838.956c-0.536-0.019-0.964-0.463-0.957-1c0.333-25.552,0.333-48.632,0.333-48.632   l-75.184-12.287c-2.586,19.301-2.867,42.214-2.426,61.229c0.011,0.49-0.385,0.886-0.874,0.893   C2670.659,839.214,2755.954,839.034,2753.718,838.956z"/>
	<path fill="#0A4A6F" d="M2668.305,755.356c0,0-50.189-79.132,46.184-84.37c0,0,36.146,4.255,44.33-3.928   c0,0,28.037,42.613,1.854,88.297C2734.489,801.04,2668.305,755.356,2668.305,755.356z"/>
	<path fill="#DEADB2" d="M2750.862,796.649c-7.306,5.748-28.725,11.456-34.918,12.124c0,0-31.763-7.083-37.536-10.565   c-8.942-5.421-8.366-16.392-8.825-31.646c-0.55-18.054-2.369-32.233-0.354-42.643c2.396-12.451,10.291-19.534,32.392-21.458   c40.574-3.522,57.477,6.638,58.184,20.241c0.183,3.653,0.354,7.135,0.472,10.435   C2761.899,775.557,2758.547,790.601,2750.862,796.649z"/>
</g>
<path fill="#FEBE56" d="M2892.967,563.586l-24.379,10.657l1.309,137.176c-44.613,50.848-80.189,97.615-95.821,118.705  c-7.021-1.071-13.929-1.934-20.697-2.604c-9.047,5.199-20.576,9.083-34.847,9.182c-24.608,0.197-36.568-4.892-42.492-9.502  c-8.642,0.774-16.631,1.758-23.908,2.827c-0.098,0.013-0.197,0.024-0.295,0.049c-0.147,0.012-0.295,0.037-0.43,0.061  c-0.186-0.147-71.453-59.529-127.331-96.527c0,0-0.269-95.307,4.759-167.004l-33.214-9.997c0,0-15.082,26.464-29.021,101.616  c-15.611,84.125-9.834,74.795-1.156,99.809c0,0,0,0,0.013,0.024c1.118,1.955,72.977,127.576,114.239,162.374  c0.504,1.623,1.045,3.343,1.598,5.126c3.811,12.279,8.568,28.234,13.189,45.344c8.936,32.991,17.344,70.186,17.344,93.208  c0,2.84-0.123,5.495-0.406,7.867c-7.411,64.642-10.091,100.915-10.632,121.172c-0.394,14.504,0.308,20.811,1.131,23.453  c0.222,0.712,0.455,1.155,0.677,1.426c0.688,0.823,1.277,0.036,1.277,0.036s89.841,5.507,119.686,5.507  c28.726,0,114.596-5.507,114.596-5.507s8.85-11.357-4.277-117.718c-2.832-22.937,14.041-125.096,23.477-179.236l0.002,0.002  c0,0,77.409-139.985,85.354-208.329C2946.084,683.756,2892.967,563.586,2892.967,563.586z"/>
<path opacity="0.2" fill="#A2431D" d="M2688.035,869.794c-7.488,4.992-29.589-29.127-36.202-39.72  c0.099-0.02,0.197-0.029,0.295-0.049C2661.463,840.195,2695.925,864.536,2688.035,869.794z"/>
<path opacity="0.2" fill="#A2431D" d="M2670.516,839.347c1.796,0.72,38.154,12.513,54.123,9.073c0,0-25.059,16.46-28.252,15.477  C2693.194,862.915,2670.516,839.347,2670.516,839.347z"/>
<path fill="#DEADB2" d="M2507.055,533.614c0,0,40.016-2.746,48.211-20.774c8.194-18.028-28.975-24.839-35.383-21.843  C2513.474,493.992,2497.36,519.971,2507.055,533.614z"/>
<path opacity="0.2" fill="#A2431D" d="M2631.678,1208.208c-6.208,4.486-19.385,7.03-29.759,8.396  c-0.823-2.644-1.524-8.949-1.131-23.453c0.541-20.257,3.221-56.529,10.632-121.172c0.283-2.372,0.406-5.027,0.406-7.867  c0-23.022-8.408-60.217-17.344-93.208c-4.622-17.11-9.379-33.065-13.189-45.344c-0.553-1.783-1.094-3.503-1.598-5.126  c-41.263-34.798-113.121-160.419-114.239-162.374c1.462,1.537,109.175,115.333,126.273,134.25  c17.208,19.052,39.333,149.345,36.875,162.251C2626.147,1067.468,2642.741,1200.218,2631.678,1208.208z"/>
<path fill="#DEADB2" d="M2838.364,527.532c0,0,26.243-24.102,40.512,4.616c0,0-16.751,34.343-39.672,20.295  C2826.502,544.659,2838.364,527.532,2838.364,527.532z"/>
<path fill="#DEADB2" d="M1933.14,925.483l-2.059-19.208c0,0-28.038-4.898-29.226-36.093c0,0,0.453-12.811,8.986-8.535  c8.531,4.276,4.784,3.837,16.916,9.608c12.131,5.772,21.17,16.494,21.446,26.125l5.599,22.615L1933.14,925.483z"/>
<polygon fill="#DEADB2" points="2162.342,1744.396 2146.827,1818.637 2123.431,1815.171 2113.073,1746.529 "/>
<path fill="#D3892A" d="M2155.449,1814.749l-8.973,29.68h-89.038C2057.438,1844.428,2080.215,1804.395,2155.449,1814.749z"/>
<polygon fill="#DEADB2" points="2311.175,1717.833 2350.19,1814.558 2322.616,1818.205 2265.469,1744.396 "/>
<path fill="#D3892A" d="M2363.481,1814.749l-8.973,29.68h-89.039C2265.469,1844.428,2288.247,1804.395,2363.481,1814.749z"/>
<path fill="#0E538B" d="M2068.635,1238.753c0,0,1.928,222.525,8.004,296.699c4.669,56.996,34.977,227.983,34.977,227.983h61.313  c0,0,55.578-425.962,27.688-505.733L2068.635,1238.753z"/>
<path fill="#2A94F5" d="M2232.438,1543.49c-12.65-19.837,35.989-229.256-5.43-289.785l-17.203-0.046l-106.535-0.323l-15.655,0.371  l5.777,61.486c0,0,12.38,4.018,13.954,28.335l0,0c5.601,92.658,18.184,227.831,44.795,260.456  c41.466,50.836,126.962,169.052,126.962,169.052l30.825-21.409l15.389-10.687C2325.317,1740.94,2283.032,1622.817,2232.438,1543.49z  "/>
<path opacity="0.5" fill="#0E538B" d="M2325.317,1740.94l-15.389,10.687c-27.96-43.014-102.827-159.357-113.133-187.455  c-12.709-34.661,12.709-146.73,17.492-187.168c4.795-40.437-13.68-119.301-13.68-119.301l9.197-4.044l17.203,0.046  c41.419,60.529-7.221,269.948,5.43,289.785C2283.032,1622.817,2325.317,1740.94,2325.317,1740.94z"/>
<path fill="#DEADB2" d="M2349.302,1236.484l8.04,13.027c0.98,3.554,2.098,6.234,5.404,7.863  c7.986,3.932,22.734,14.015,23.848,35.197c0,0-0.252,11.989-8.29,8.104c-8.038-3.884-4.526-3.524-15.951-8.759  c-11.424-5.234-15.662-21.884-16.661-27.56l-7.943-11.554L2349.302,1236.484z"/>
<path fill="#0E538B" d="M2094.997,838.747c0,0,2.188-72.379,71.663-63.478c69.477,8.9,75.315,99.978,61.303,130.338  c-14.012,30.359,28.024,30.943,40.284,57.8c12.262,26.856-7.584,57.216-7.586,64.806c-0.003,7.59-8.499,85.385-54.622,84.217  s-123.623-3.466-119.948-84.801c1.884-41.672-26.656-57.246-8.411-72.616C2109.331,928.346,2094.997,838.747,2094.997,838.747z"/>
<path fill="#C88D94" d="M2235.43,956.562c-15.351-3.927-29.666-6.662-42.765-8.528l0.001-0.001c0,0-5.864-1.152-8.657-62.778  l-51.69,15.741c0,0,3.915,22.754-3.73,43.798c-13.727,0.691-21.729,2.12-22.742,2.12c0,0-44.217,95.559-37.129,139.333  c7.089,43.775,4.938,167.46,4.938,167.46l153.786-1.908c0,0-5.389-31.983-19.564-68.017  C2193.702,1147.748,2235.43,956.562,2235.43,956.562z"/>
<path fill="#FEBE56" d="M2307.709,1146.319c-7.702-53.146-41.593-172.533-49.655-180.932c-0.004-0.004-0.009-0.008-0.013-0.012  c-10.904-12.399-59.305-16.417-59.305-16.417c-7.603,11.9-76.866,43.603-76.866,43.603c-11.819-14.766-10.409-46.307-10.409-46.307  c-3.301,0.215-6.293,0.53-9.016,0.914c0.011-0.043,0.018-0.068,0.018-0.068s-30.905-2.672-113.857,65.214  c0,0-19.939-66.38-33.804-95.649c0,0-6.55,0.131-14.021,3.018c-5.091,1.967-10.991,3.482-10.991,3.482s1.776,112.723,41.636,143.474  c0,0,67.176-15.478,94.11-27.667c-0.862,9.365-1.335,17.834-1.145,24.238c1.086,36.277,10.837,101.313,5.453,132.657  c-3.212,18.693-5.106,42.667-3.985,53.666c0.357,3.513,1.155,5.962,10.282,6.747c13.091,1.133,45.452,5.153,75.549,5.153  c17.619,0,35.169-1.849,48.917-3.731h0.012c14.407-1.977,24.621-3.998,26.389-3.998c1.282,0,2.01-1.352,2.287-3.731  c1.537-13.252-10.86-58.554-19.133-82.585c-7.394-21.478,11.97-77.801,21.813-103.854c0.058-0.154,0.113-0.3,0.171-0.452  c12.959,56.32,32.261,99.421,35.125,107.114c4.589,12.323,74.735,88.802,74.735,88.802l15.335-9.486  C2345.019,1220.242,2307.709,1146.319,2307.709,1146.319z"/>
<path opacity="0.2" fill="#D3892A" d="M2210.163,1167.388c8.272,24.031,20.67,69.333,19.133,82.585  c-20.564-2.092-43.037-61.511-50.188-75.156c-7.867-15.02,12.49-122.467,35.181-131.132c8.873-3.386,14.314,6.458,17.688,19.849  C2222.132,1089.587,2202.769,1145.911,2210.163,1167.388z"/>
<path fill="#0E538B" d="M2172.148,1268.967c0,0,14.635,214.714,13.095,282.495c0,0-5.107,10.132,16.945,36.971  c22.052,26.84,96.279,155.963,96.279,155.963s-77.12-140.365-100.228-165.205c0,0-11.843-13.864-10.976-21.952  C2188.13,1549.152,2184.472,1320.755,2172.148,1268.967z"/>
<path fill="#DEADB2" d="M2122.262,914.138c0,0,63.053,2.881,64.242-36.413c1.189-39.293,10.129-65.385-30.078-68.886  c-40.207-3.501-48.486,11.256-52.073,24.275C2100.765,846.132,2105.891,912.375,2122.262,914.138z"/>
<path fill="#0E538B" d="M2194.411,805.48c-6.014-16.66-36.747-30.983-36.747-30.983s-31.974-5.979-57.575,31.377  c-11.029,16.094-5.195,43.133,4.013,57.85c0,0,5.881-35.814,24.293-46.488c3.489-2.023,6.706-4.815,9.63-8.011  c2.792,5.669,8.867,14.456,22.055,25.063c23.497,18.898,24.728,58.839,24.728,58.839S2209.661,847.73,2194.411,805.48z"/>
<path fill="#0C4772" d="M1155.131,1805.161c-40.444-1.748-41.994,39.388-41.994,39.388h34.339h15.31h33.041  C1195.827,1844.548,1195.575,1803.413,1155.131,1805.161z"/>
<path fill="#1E0F00" d="M1482.893,1805.161c-40.444-1.748-41.994,39.388-41.994,39.388h34.338h15.31h33.041  C1523.589,1844.548,1523.336,1803.413,1482.893,1805.161z"/>
<path fill="#0E538B" d="M1201.153,1174.88l-70.197,16.441l-23.144,629.842c0,0,39.378,0,66.731,0h24.15  c12.184,0,89.645-508.108,89.645-562.013c0-53.919,0-104.679,0-104.679L1201.153,1174.88z"/>
<path fill="#0C4772" d="M1065.678,772.663c0,0-69.357-75.912,40.163-95.069c0,0,31.291-1.597,41.189-6.706  c0,0,21.904,52.974,9.036,81.406C1143.198,780.726,1065.678,772.663,1065.678,772.663z"/>
<linearGradient id="SVGID_1_" gradientUnits="userSpaceOnUse" x1="1213.2622" y1="733.7334" x2="1427.7554" y2="733.7334">
	<stop offset="0.0831" style="stop-color:#DEADB2"/>
	<stop offset="0.9665" style="stop-color:#C08790"/>
	<stop offset="1" style="stop-color:#BF8690"/>
</linearGradient>
<path fill="url(#SVGID_1_)" d="M1213.262,848.339c0,0,69.395-115.565,113.555-146.157l59.932-171.266h41.006  c0,0-29.966,198.034-33.12,206.417c-3.154,8.383-157.716,199.219-157.716,199.219L1213.262,848.339z"/>
<path fill="#C88D94" d="M1162.787,837.139c-0.539,0.069,0.625-11.696,0.357-12.169c-11.44-20.307-9.079-37.351-9.079-37.351  l-77.173-0.017c0.564,19.719,0.589,34.603,7.101,54.635c0.154,0.472-0.689,7.756-0.264,8.013  C1127.411,876.646,1165.036,836.852,1162.787,837.139z"/>
<path fill="#FEBE56" d="M1369.415,1139.029l-184.198,41.997l-52.568,11.989c-3.856,0.881-7.756-1.293-9.015-5.033  c-13.465-39.881-46.241-112.068-75.871-174.715c-30.133-63.71-57.006-117.56-57.006-117.56  c30.66-24.733,62.544-41.802,93.237-53.471c8.134,8.603,24.333,18.728,50.932,7.333c14.541-6.224,22.506-16.987,26.556-27.718  c59.042-8.535,101.54-0.025,101.54-0.025L1369.415,1139.029z"/>
<path fill="#DEADB2" d="M1153.029,795.307c-6.366,6.938-26.85,16.141-32.933,17.818c0,0-32.912-1.899-39.252-4.439  c-9.825-3.96-11.039-15.023-13.986-30.198c-3.496-17.961-7.629-31.841-7.311-42.576c0.364-12.839,7.102-21.209,28.883-26.739  c39.991-10.141,58.548-2.741,61.474,10.744c0.779,3.622,1.517,7.077,2.173,10.356  C1160.623,772.419,1159.726,788.006,1153.029,795.307z"/>
<path fill="#CCE9FF" d="M999.881,760.042v-88.76c0-7.55-6.178-13.728-13.728-13.728H732.195c-7.55,0-13.728,6.178-13.728,13.728  v88.76c0,7.55,6.178,13.728,13.728,13.728h177.702l108.177,55.036l-54.311-55.036h22.39  C993.704,773.771,999.881,767.593,999.881,760.042z"/>
<path opacity="0.2" fill="#2994F3" d="M823.097,712.052c0,6.601-1.624,12.838-4.51,18.299  c-6.583,12.545-19.733,21.098-34.887,21.098c-6.618,0-12.874-1.642-18.351-4.544c-0.708-0.363-1.382-0.743-2.056-1.158  c-4.268-2.592-8.018-5.978-11.024-9.953c-0.156-0.207-0.311-0.415-0.466-0.639c-0.086-0.121-0.173-0.242-0.259-0.363  c-4.544-6.411-7.223-14.256-7.223-22.74c0-21.755,17.625-39.38,39.38-39.38C805.454,672.671,823.097,690.297,823.097,712.052z"/>
<g>
	<path fill="#0C4772" d="M771,709.429c0,0-15.38-23.563,15.043-23.901c0,0,8.521,0.95,11.419,0.007c0,0,3.577,15.273-1.153,22.383   C791.579,715.029,771,709.429,771,709.429z"/>
	<path fill="#C88D94" d="M794.379,731.128c0.104-0.106,0.685-3.131,0.634-3.271c-2.193-5.989-0.803-10.488-0.803-10.488   l-20.841-3.412c0.136,5.869,0.625,9.604-0.494,15.068c-0.027,0.133-0.289,2.15-0.425,2.152   C771.354,731.195,784.827,740.98,794.379,731.128z"/>
	<path fill="#FEBE56" d="M818.587,730.351c-6.583,12.545-19.733,21.098-34.887,21.098c-6.618,0-12.874-1.642-18.351-4.544   c-0.708-0.363-1.382-0.743-2.056-1.158c-4.268-2.592-8.018-5.978-11.024-9.953c3.059-1.417,6.083-2.627,9.089-3.663   c2.539-0.864,5.028-1.59,7.499-2.212c0.069-0.017,0.121-0.017,0.173-0.034c0.173-0.035,0.259-0.052,0.259-0.052   c1.21-0.312,2.402-0.57,3.595-0.813v0.018c1.831,2.695,5.754,6.117,13.426,4.216c4.199-1.037,6.774-3.473,8.346-6.186h0.103   C805.558,727.275,814.078,729.124,818.587,730.351z"/>
	<path fill="#DEADB2" d="M793.591,719.401c-2.026,1.593-7.964,3.173-9.681,3.358c0,0-8.804-1.966-10.405-2.932   c-2.479-1.503-2.318-4.544-2.444-8.773c-0.151-5.005-0.655-8.935-0.095-11.821c0.665-3.451,2.854-5.414,8.981-5.946   c11.248-0.974,15.933,1.844,16.128,5.615c0.051,1.013,0.098,1.978,0.13,2.893C796.652,713.555,795.722,717.725,793.591,719.401z"/>
</g>
<path fill="#FEBE56" d="M751.802,735.154c0.155,0.225,0.31,0.432,0.466,0.639c3.007,3.975,6.756,7.361,11.024,9.953  c0.674,0.415,1.348,0.795,2.056,1.158l3.94-17.072c0,0-0.086,0.017-0.259,0.052c-0.052,0.017-0.104,0.017-0.173,0.034  c-1.901,0.38-10.005,2.074-17.314,4.873L751.802,735.154z"/>
<g>
	<path opacity="0.2" fill="#2994F3" d="M846.576,695.885h128.577c2.645,0,4.81-2.165,4.81-4.81c0-2.646-2.165-4.81-4.81-4.81   H846.576c-2.646,0-4.81,2.164-4.81,4.81C841.766,693.72,843.93,695.885,846.576,695.885z"/>
	<path opacity="0.2" fill="#2994F3" d="M975.153,708.351H846.576c-2.646,0-4.81,2.165-4.81,4.81c0,2.645,2.164,4.809,4.81,4.809   h128.577c2.645,0,4.81-2.164,4.81-4.809C979.962,710.516,977.798,708.351,975.153,708.351z"/>
	<path opacity="0.2" fill="#2994F3" d="M975.153,728.236H846.576c-2.646,0-4.81,2.164-4.81,4.81l0,0c0,2.646,2.164,4.81,4.81,4.81   h128.577c2.645,0,4.81-2.164,4.81-4.81l0,0C979.962,730.4,977.798,728.236,975.153,728.236z"/>
</g>
<path fill="#2A94F5" d="M1832.583,1843.542l-449.466,0.643c-83.885,0.127-152.611-68.406-152.728-152.278l-1.482-1026.629  c-0.091-67.069,43.696-124.448,104.12-144.805c15.157-5.118,31.357-7.898,48.171-7.922l2.308-0.004l99.016-0.137l245.288-0.358  c0.048-0.004,0.093,0.004,0.14,0l102.715-0.145c83.886-0.126,152.612,68.407,152.729,152.279l1.483,1026.629  C1984.99,1774.699,1916.469,1843.415,1832.583,1843.542z"/>
<path fill="#F1F1F1" d="M1815.133,1816.875l-414.646,0.602c-71.239,0.097-129.618-58.108-129.725-129.361l-0.785-540.581  l-0.099-75.032l-0.091-60.138l-0.316-217.783l-0.152-107.579l-0.024-18.053c-0.106-71.253,58.111-129.63,129.352-129.738l84.2-0.116  l128.627-0.185l201.816-0.291c34.403-0.055,65.795,13.49,89.08,35.537c9.723,9.193,18.034,19.878,24.547,31.677  c7.106,12.826,12.09,26.967,14.486,41.938c1.055,6.58,1.606,13.331,1.613,20.199l1.465,1019.178  C1944.589,1758.4,1886.385,1816.768,1815.133,1816.875z"/>
<path fill="#2A94F5" d="M1727.887,565.356l-245.284,0.353c-14.659,0.021-26.67-11.955-26.69-26.614l0,0  c-0.021-14.659,11.955-26.669,26.614-26.691l245.284-0.353c14.659-0.021,26.67,11.955,26.691,26.614l0,0  C1754.522,553.324,1742.545,565.335,1727.887,565.356z"/>
<path fill="#0E538B" d="M1403.917,1679.12c-15.641-2.99-18.754,10.218-18.754,10.218s-3.114-13.208-18.754-10.218  c-15.641,2.991-15.206,20.435-11.296,27.911s30.05,29.156,30.05,29.156s26.14-21.68,30.05-29.156  S1419.557,1682.111,1403.917,1679.12z"/>
<path opacity="0.4" fill="#2A94F5" d="M1649.958,1678.679h-63.176c-4.556,0-8.249,3.693-8.249,8.248v41.012  c0,4.556,3.693,8.248,8.249,8.248h12.308c2.341,0,3.98,2.312,3.206,4.521l-2.404,6.86l27.213-9.511  c3.541-1.237,7.266-1.87,11.017-1.87h11.835c4.556,0,8.248-3.692,8.248-8.248v-41.012  C1658.207,1682.373,1654.514,1678.679,1649.958,1678.679z"/>
<path opacity="0.4" fill="#2A94F5" d="M1892.212,1699.144l-33.515-25.288v17.76c-42.966,1.719-39.242,55.952-39.242,55.952  c9.739-33.705,39.242-34.756,39.242-34.756v19.383L1892.212,1699.144z"/>
<rect x="1299.061" y="750.271" opacity="0.2" fill="#2994F3" width="625.635" height="862.113"/>
<g opacity="0.4">
	<path fill="#2A94F5" d="M1775.887,678.478h-328.016c-6.349,0-11.543,5.195-11.543,11.543v2.886c0,6.349,5.194,11.543,11.543,11.543   h328.016c6.349,0,11.543-5.194,11.543-11.543v-2.886C1787.43,683.673,1782.236,678.478,1775.887,678.478z"/>
	<path fill="#2A94F5" d="M1818.919,678.478c-7.172,0-12.986,5.814-12.986,12.986c0,7.172,5.814,12.986,12.986,12.986   s12.986-5.814,12.986-12.986C1831.906,684.292,1826.091,678.478,1818.919,678.478z"/>
	<path fill="#2A94F5" d="M1855.793,678.478c-7.172,0-12.986,5.814-12.986,12.986c0,7.172,5.814,12.986,12.986,12.986   c7.172,0,12.985-5.814,12.985-12.986C1868.779,684.292,1862.965,678.478,1855.793,678.478z"/>
	<path fill="#2A94F5" d="M1893.629,678.478c-7.172,0-12.986,5.814-12.986,12.986c0,7.172,5.814,12.986,12.986,12.986   c7.171,0,12.985-5.814,12.985-12.986C1906.615,684.292,1900.8,678.478,1893.629,678.478z"/>
</g>
<g opacity="0.2">
	<path fill="#A2431D" d="M1142.431,1245.659c42.923-16.959,46.893-56.233,46.893-56.233c-0.059,0.383-6.387,38.438-49.324,54.527   l0.866,2.309C1141.391,1246.064,1141.917,1245.862,1142.431,1245.659z"/>
</g>
<path opacity="0.2" fill="#D3892A" d="M1185.217,1181.026l-52.568,11.989c-3.856,0.881-7.756-1.293-9.015-5.033  c-13.465-39.881-46.241-112.068-75.871-174.715l7.082-36.048c0,0,31.46,29.745,38.325,48.621  c6.864,18.877,47.465,136.711,71.49,143.574C1175.755,1172.583,1181.853,1177.09,1185.217,1181.026z"/>
<path fill="#DEADB2" d="M1279.373,1004.439c-53.527-0.258-63.979,47.413-63.979,47.413l-42.096,9.347l0.075,0.236  c-31.676,7.119-75.329,16.705-109.377,23.321c0,0-3.708-86.072-4.438-122.286c-0.73-36.214-0.028-108.649-0.028-108.649  s-62.85,23.914-85.754,52.229c0,0-3.209,173.97,41.026,254.813c0,0,103.065-7.803,213.151-81.213  c10.495-1.233,36.898-10.559,47.677-30.918c10.779-20.358,9.752-13.97,17.704-28.273  C1301.287,1006.157,1279.373,1004.439,1279.373,1004.439z"/>
<path fill="#FEBE56" d="M1071.563,847.24c0,0-79.326,28.825-97.787,58.81c0,0-2.365,75.931,3.807,95.72  c0,0,59.827-2.68,83.417,7.549L1071.563,847.24z"/>
<polygon opacity="0.3" fill="#2A94F5" points="1793.958,931.052 1793.958,999.52 1694.537,999.52 1694.537,860.645   1609.619,860.645 1609.619,915.667 1532.867,915.667 1532.867,794.269 1447.95,794.269 1447.95,1040.096 1383.979,1040.096   1383.979,889.058 1299.061,889.058 1299.061,1612.384 1375.424,1612.384 1383.979,1612.384 1447.95,1612.384 1460.342,1612.384   1532.222,1612.384 1532.867,1612.384 1609.619,1612.384 1617.139,1612.384 1691.948,1612.384 1694.537,1612.384 1793.958,1612.384   1822.686,1612.384 1924.696,1612.384 1924.696,931.052 "/>
<path fill="#0E538B" d="M1837.286,1088.897c-60.351-31.263-101.742-44.22-99.328-83.89c2.443-39.68-15.795-210.469-131.774-165.768  c0,0-18.613-8.273-26.953-7.032c0,0,6.81,1.298,10.273,4.877c-13.448-0.798-32.676,0.192-48.712,9.312  c-8.802,5.002-17.401,18.248-24.943,36.649c-0.481,1.183-0.972,2.395-1.443,3.636c-3.155,8.09-6.089,17.074-8.753,26.722  c-4.675,16.863-8.513,35.735-11.168,55.349c0,0,0,0,0,0.01c-0.875,6.406-1.616,12.89-2.212,19.411c0,0,0,0.01,0,0.019  c-0.029,0.298-0.058,0.577-0.087,0.876c-4.338,48.048-1.106,97.875,14.698,131.793c4.954,10.61,11.13,19.662,18.691,26.627  c-3.021-6.233-6.224-14.93-9.062-27.088c-2.741-11.697-5.137-26.617-6.733-45.624c0.318,2.472,3.184,23.451,10.149,45.479  c3.896,12.322,9.08,24.972,15.824,34.898c33.273,21.836,79.695,65.719,121.51,111.141c9.369,10.168,18.488,20.402,27.174,30.483  c14.93,17.305,28.579,34.167,39.959,49.414l0.009,0.01c0.174,0.23,0.337,0.452,0.51,0.673  c20.826,27.973,33.918,50.453,33.024,60.217c0,0,16.343-15.333,40.045-37.111l5.473-32.955c0.982,2.001,1.655,4.607,2.126,7.483  c0,0.02,0.01,0.029,0.01,0.039c0.684,4.251,0.914,9.108,0.924,13.485v0.039c0,1.433-0.02,2.809-0.049,4.098  c0.097-0.087,0.202-0.183,0.299-0.279c35.389-32.416,82.956-75.376,117.932-104.484v-101.512  C1906.053,1134.02,1878.34,1110.174,1837.286,1088.897z"/>
<path fill="#C88D94" d="M1540.315,1157.665c10.725-4.999,4.117-96.271,4.117-96.271l90.864-17.999  c6.311,29.895,3.013,82.127,14.288,84.366c0.365,0.072-17.047,34.63-43.672,41.895  C1577.578,1177.386,1539.921,1157.847,1540.315,1157.665z"/>
<path fill="#575BA3" d="M1631.092,870.98c0,0-46.925-44.9-95.108,3.323C1535.984,874.303,1566.136,870.346,1631.092,870.98z"/>
<path fill="#0E538B" d="M1639.045,1035.067c0,0,25.148-39.736,31.184-73.714c4.31-24.258-8.046-114.174-98.403-101.224  c0,0-26.243,2.586-50.911,19.247c-19.618,13.25-47.931,41.855-16.274,120.318l8.223,26.505L1639.045,1035.067z"/>
<path fill="#DCABB0" d="M1833.862,1612.384h-56.793c-0.009-0.028-0.019-0.058-0.028-0.086c0-0.02-0.01-0.029-0.02-0.048  c0-0.01-0.009-0.029-0.009-0.039c-15.42-54.454-30.407-108.716-31.407-117.229c-1.269-10.774-12.322-87.429-20.874-146.443  c0.01-0.01,0-0.02,0-0.028c-0.106-0.77-0.221-1.539-0.327-2.309l-0.009-0.01c-1.79-12.38-3.463-23.923-4.906-33.841  c-2.934-20.19-4.887-33.619-4.887-33.619l20.883-2.241l63.392-6.811c0,0,0.298,1.616,0.865,6.426  c1.049,8.821,3.03,28.387,5.839,68.402c0,0.02,0.01,0.029,0.01,0.039c0.299,4.261,0.605,8.753,0.924,13.485v0.039  c0.086,1.25,0.173,2.529,0.25,3.818c2.059,30.945,4.482,71.865,7.243,125.771  C1814.007,1487.662,1824.261,1547.436,1833.862,1612.384z"/>
<path fill="#DCABB0" d="M1469.004,1125.228l-0.067,0.981l-8.965,125.762c0,0-21.22,23.163-43.806,46.788  c-0.395,0.404-0.779,0.809-1.164,1.212l-0.01,0.01c-15.708,16.401-31.907,32.83-41.959,41.689  c-13.842,12.207-59.12,43.114-73.972,53.176v-125.194c18.988-21.326,47.73-52.531,77.146-80.494  c34.841-33.119,70.615-61.688,92.249-63.871c0.173-0.029,0.346-0.039,0.51-0.059H1469.004z"/>
<path fill="#FFBE55" d="M1777.021,1612.25c0-0.009-0.009-0.028-0.009-0.038c-0.318-0.76-0.636-1.5-0.943-2.251  c-0.27-0.663-0.548-1.317-0.827-1.972c-0.135-0.337-0.279-0.664-0.413-0.981c-0.761-1.808-1.511-3.588-2.261-5.329  c-0.327-0.76-0.654-1.529-0.981-2.279c-0.789-1.837-1.568-3.636-2.348-5.396c-0.355-0.837-0.721-1.664-1.086-2.481  c-0.693-1.578-1.386-3.127-2.059-4.656c-0.029-0.058-0.059-0.125-0.087-0.183c-0.587-1.308-1.164-2.606-1.741-3.886  c-2.02-4.474-3.983-8.744-5.877-12.804c-0.27-0.587-0.539-1.164-0.809-1.731c-2.684-5.733-5.232-11.081-7.638-16.074  c-0.327-0.663-0.644-1.327-0.952-1.972c-0.635-1.318-1.26-2.597-1.866-3.857c-0.605-1.261-1.212-2.502-1.799-3.714  c-1.76-3.646-3.425-7.079-4.982-10.331c-0.385-0.798-0.751-1.577-1.116-2.356c-0.798-1.674-1.559-3.3-2.289-4.877  c-0.24-0.529-0.48-1.049-0.722-1.567c-1.462-3.204-2.789-6.215-3.963-9.062c-0.25-0.597-0.49-1.193-0.722-1.78  c-0.27-0.663-0.529-1.327-0.779-1.981c-0.288-0.73-0.558-1.452-0.808-2.164c-0.442-1.192-0.837-2.366-1.202-3.501  c-0.202-0.606-0.385-1.203-0.559-1.789c-0.143-0.491-0.288-0.982-0.423-1.463c-0.135-0.5-0.27-0.99-0.385-1.472  c-0.125-0.48-0.24-0.962-0.347-1.442c-0.028-0.125-0.057-0.25-0.086-0.375c-0.067-0.309-0.135-0.616-0.192-0.924  c-0.01-0.039-0.02-0.087-0.029-0.125c-0.135-0.683-0.25-1.366-0.355-2.029c-6.513-42.335-6.647-86.141-3.405-127.465  c0.51-6.531,1.106-13.006,1.77-19.402c0.01-0.01,0-0.02,0-0.028c0.057-0.539,0.115-1.087,0.182-1.636  c1.434-13.515,3.194-26.673,5.175-39.313l74.303-33.556c-15.486-74.442-40.466-106.904-40.702-107.21c0-0.001,0-0.003,0-0.003  h-0.002c-0.001-0.001-0.004-0.005-0.004-0.005c-0.01-0.005-0.021-0.01-0.03-0.016c-28.815-21.836-78.565-39.883-118.771-44.374  c-0.596-0.067-25.713,25.579-49.934,24.944c-24.875-0.635-47.621-26.464-48.525-27.878c-8.763,0.24-19.589,0.501-26.496,0.79  c-1.164,0.048-2.299,0.096-3.415,0.145c-3.434,0.144-6.646,0.298-9.629,0.461c-29.964,1.559-37.871,3.29-37.871,3.29l-0.009,0.01  v0.01c-0.001,0.001-0.001,0.003-0.002,0.005l0.001-0.015c0,0-30.092,4.68-95.967,57.601c0,0,41.461,95.201,41.955,118.219  l1.128-0.833c0,0.002-0.001,0.005-0.001,0.007c-1.597,12.101-2.732,24.23-3.3,36.265c-0.914,19.229,39.862,194.001,39.881,198.262  c0.145,32.167,0.125,57.984,0.01,78.704h324.37c-0.01-0.028-0.019-0.058-0.038-0.086  C1777.041,1612.279,1777.031,1612.269,1777.021,1612.25z"/>
<path fill="#DAA9AE" d="M1528.405,1085.458c0,0,113.54,1.873,113.619-68.852c0.078-70.725,14.785-118.116-57.705-122.302  c-72.489-4.186-86.604,22.786-92.372,46.386C1486.179,964.292,1498.872,1083.149,1528.405,1085.458z"/>
<path fill="#0E538B" d="M1532.607,892.572c0,0,31.087,82.974,78.796,95.243c47.709,12.268,68.403-0.515,68.403-0.515  s-31.561-25.071-42.146-69.291c-1.704-7.121-6.117-13.301-12.43-17.01C1602.891,887.873,1550.822,861.897,1532.607,892.572z"/>
<path fill="#0E538B" d="M1540.312,899.309c0,0-23.216,18.525-28.876,36.535c-5.661,18.01-8.206,55.085-19.012,53.825  c0,0-23.421-56.398,2.9-88.301C1523.234,867.537,1540.312,899.309,1540.312,899.309z"/>
<path opacity="0.2" fill="#D1872B" d="M1777.079,1612.384h-19.344c-40.074-31.041-58.148-107.321-68.325-121.73  c-13.439-19.047-49.106-114.21-39.834-194.434c1.886-16.237,4.579-25.511,7.687-29.926c8.647-12.303,20.527,13.034,27.174,30.483  c2.761,7.243,4.617,13.14,4.974,14.409c0,0,14.332,23.087,33.552,56.754c-3.242,41.324-3.107,85.13,3.405,127.465  c0.105,0.663,0.221,1.347,0.355,2.029c0.01,0.038,0.02,0.086,0.029,0.125c0.057,0.308,0.125,0.615,0.192,0.924  c0.028,0.125,0.058,0.25,0.086,0.375c0.107,0.48,0.222,0.962,0.347,1.442c0.115,0.481,0.25,0.972,0.385,1.472  c0.135,0.481,0.27,0.972,0.423,1.463c0.174,0.586,0.357,1.182,0.559,1.789c0.365,1.135,0.76,2.309,1.202,3.501  c0.25,0.712,0.52,1.434,0.808,2.164c0.241,0.654,0.501,1.309,0.779,1.981c0.231,0.587,0.472,1.184,0.722,1.78  c1.174,2.847,2.501,5.857,3.963,9.062c0.24,0.519,0.481,1.038,0.722,1.567c0.731,1.577,1.491,3.203,2.289,4.877  c0.365,0.779,0.741,1.559,1.116,2.356c1.557,3.252,3.223,6.686,4.982,10.331c0.587,1.212,1.184,2.453,1.799,3.713  c0.606,1.261,1.231,2.54,1.866,3.858c0.308,0.644,0.625,1.308,0.952,1.972c2.405,4.993,4.954,10.341,7.638,16.074  c0.27,0.567,0.539,1.144,0.809,1.731c1.894,4.06,3.857,8.33,5.877,12.804c0.577,1.279,1.154,2.577,1.741,3.886  c0.028,0.058,0.058,0.125,0.087,0.183c0.683,1.529,1.365,3.078,2.059,4.656c0.365,0.817,0.73,1.645,1.086,2.481  c0.78,1.761,1.559,3.56,2.348,5.396c0.327,0.75,0.654,1.52,0.981,2.279c0.75,1.741,1.5,3.521,2.261,5.329  c0.134,0.317,0.278,0.645,0.413,0.981c0.279,0.654,0.558,1.309,0.827,1.972c0.308,0.751,0.625,1.491,0.943,2.251  c0,0.01,0.009,0.029,0.009,0.039c0.01,0.019,0.02,0.028,0.02,0.048C1777.06,1612.327,1777.069,1612.356,1777.079,1612.384z"/>
<path fill="#DEADB2" d="M432.136,683.813l2.728-13.676c0,0-22.117-9.311-17.213-35.17c0,0,2.788-10.442,8.994-5.32  c6.206,5.123,3.208,4.056,12.09,11.086c8.881,7.03,11.033,20.63,10.692,25.814l2.864,21.534L432.136,683.813z"/>
<polygon fill="#DEADB2" points="516.764,1748.253 534.28,1822.028 560.517,1821.879 561.479,1748.253 "/>
<path fill="#0C4772" d="M547.582,1815.522c-29.681-1.283-30.818,28.906-30.818,28.906h25.201H553.2h24.248  C577.448,1844.428,577.263,1814.239,547.582,1815.522z"/>
<polygon fill="#DEADB2" points="756.201,1751.398 799.018,1822.028 825.255,1821.879 804.131,1741.688 "/>
<path fill="#0C4772" d="M812.319,1815.522c-29.681-1.283-30.818,28.906-30.818,28.906h25.201h11.236h24.248  C842.185,1844.428,842,1814.239,812.319,1815.522z"/>
<path fill="#0C4772" d="M592.857,755.38c-10.167-2.273-20.711,0.366-27.84,3.016c1.279-2.502,4.741-4.33,4.741-4.33  c-4.707,0.708-13.389,8.248-13.389,8.248c-70.006-4.969-51.636,90.249-43.765,111.269c7.86,21.02-12.349,34.854-39.767,61.701  c-52.31,51.225-44.576,96.018-44.576,96.018c0.571,0.138,1.176,0.309,1.828,0.515c1.485-6.17,4.833-17.925,9.733-21.043  c-0.057,0.537-2.193,15.444-2.193,23.613c22.607,8.339,66.372,28.754,96.989,43.353c-1.417-4.25-3.107-10.385-2.525-14.074  l8.396,16.885c16.394,7.848,27.749,13.423,27.749,13.423c-6.877-16.828,45.044-132.62,78.345-172.729  c5.575-18.039,1.108-45.524,0.743-47.684c4.649,21.454,4.661,34.283,3.484,41.869C676.16,872.155,619.806,761.4,592.857,755.38z"/>
<path fill="#C88D94" d="M630.602,936.174c-6.616-0.927-18.126-51.297-18.126-51.297l-48.748,12.312  c1.531,17.183,8.657,37.819,2.939,40.891c-0.185,0.1,14.924,15.88,30.5,15.405C613.741,952.978,630.844,936.208,630.602,936.174z"/>
<path fill="#2A94F5" d="M533.455,793.851c0,0,18.694-29.457,52.674-11.381C586.129,782.47,568.421,782.778,533.455,793.851z"/>
<path fill="#0C4772" d="M544.446,884.202c0,0-11.202-14.089-20.074-31.437c-6.334-12.385-14.517-62.973,36.407-70.907  c0,0,14.596-2.939,30.667,1.981c12.781,3.913,32.792,14.68,28.663,62.272l-0.061,15.669L544.446,884.202z"/>
<path fill="#DEADB2" d="M619.347,889.315c-10.153,15.303-22.515,35.432-64.076,12.751c-8.131-4.438-9.743-13.718-13.115-26.809  c-3.997-15.494-9.908-24.198-10.196-33.585c-0.359-11.226,7.744-18.164,26.465-24.138c34.372-10.958,53.875-7.061,55.449,10.868  C617.385,868.419,629.672,873.753,619.347,889.315z"/>
<g>
	<path fill="#0C4772" d="M533.86,826.887c-2.528,2.696-4.124,6.187-4.282,9.879c-0.814,19.05-26.142,21.083-26.142,21.083   s22.957,13.338,42.363,1.477c19.405-11.861,26.972-47.763,26.972-47.763C560.99,800.848,542.392,817.786,533.86,826.887z"/>
	<path fill="#0C4772" d="M612.74,807.169c-8.051-6.349-40.483,6.571-40.483,6.571s20.685-5.129,26.998,0.748   c6.313,5.877,8.728,13.503,12.003,16.88c3.275,3.377,3.875,7.863,3.875,7.863S619.052,812.146,612.74,807.169z"/>
</g>
<path fill="#DEADB2" d="M542.536,930.685c0,0-34.186-32.852-45.602-46.382c-10.994-13.03-41.126-49.694-41.126-49.694  s0.762-45.696,0-71.399c-0.552-18.651-1.713-83.945-1.713-83.945h-20.563c0,0-14.453,52.173-18.926,71.378  c-10.776,46.267-10.776,90.841-10.776,90.841s21.727,43.474,48.121,79.923c31.987,44.172,51.229,56.61,57.791,62.577  L542.536,930.685z"/>
<path fill="#DEADB2" d="M657.747,944.621c0,0,17.569,4.765,24.586,8.773c21.324,12.185,74.754,119.403,87.32,158.245  c0,0,20.179,4.779-101.359,126.571l-10.212-17.986c0,0,36.837-70.353,63.356-106.284c0,0-35.979-54.851-43.576-82.269  C670.266,1004.254,657.747,944.621,657.747,944.621z"/>
<path fill="#2A94F5" d="M657.745,1222.366h-3.712c-2.964-6.677-8.747-25.33,3.186-51.921  c17.182-38.293,27.737-73.685,32.592-105.363c1.542,2.559,2.479,3.93,2.479,3.93c2.285-7.688,42.406-41.742,42.406-41.742  s-33.86-66.693-50.745-77.397c-8.282-5.255-39.972-10.019-39.972-10.019c-4.124-1.268-8.579-2.513-13.378-3.679  c-6.283,5.975-15.719,11.595-29.188,11.984c-17.273,0.503-27.293-10.12-32.685-18.997c-1.279,0.012-2.421,0.113-3.655,0.273  c0,0-6.523-6.512-17.022-4.993c-3.05,0.446-28.399-16.222-28.399-16.222s-7.654,15.011-15.914,29.885  c-7.814,14.074-16.165,28.023-19.089,28.994c0,0,10.224,8.419,15.948,21.934c-2.102,25.43-3.587,62.271,2.833,81.646  c10.613,31.999,14.372,50.06,0.457,92.065c-5.232,15.811-12.966,35.015-23.785,59.621c0,0-9.87,21.283-14.245,78.14  c-6.044,78.505-1.6,224.822,53.795,476.594c0,0,17.444,0,45.775,0h24.607c1.555,0,1.097-201.049,0.486-361.076  c0.247,0.652,0.49,1.302,0.737,1.954c63.779,168.469,157.159,359.933,157.159,359.933h73.147  C806.335,1694.847,657.745,1222.366,657.745,1222.366z"/>
<g>
	<g>
		<path fill="#0E538B" d="M585.798,1387.687c-5.407-42.017-9.31-91.577-10.53-142.941c-0.186-7.852-0.325-15.925-0.413-23.993    c-0.095-8.901-0.13-17.908-0.107-26.77c0.009-3.043,1.077-6.437,2.11-9.716c0.961-3.052,1.953-6.205,1.981-8.829    c0.359-33.666,2.313-64.303,4.034-91.331c0.452-7.091,0.894-14.027,1.297-20.836c3.644-61.491,5.47-96.365,5.467-96.711l0,0    c0.005,0.346,0.384,35.311-3.264,96.888c-0.404,6.811-0.846,13.751-1.298,20.843c-1.721,27.004-3.671,57.61-4.03,91.223    c-0.031,2.931-1.072,6.235-2.077,9.43c-0.987,3.133-2.006,6.37-2.013,9.097c-0.025,8.854,0.011,17.852,0.106,26.742    c0.087,8.061,0.226,16.125,0.412,23.967c1.219,51.292,3.557,101.099,8.955,143.045L585.798,1387.687z"/>
	</g>
</g>
<path fill="#DEADB2" d="M658.083,1220.224l-2.673,4.866c0,0-21.332-18.698-46.286-0.116c0,0-9.66,8.361-1.006,12.311  c8.654,3.948,5.97,1.314,18.034,7.121c12.064,5.808,26.039,6.119,33.686,0.312l8.458-6.507L658.083,1220.224z"/>
<g>
	<path fill="#0E538B" d="M488.959,1272.286c38.892,10.17,61.893-15.388,61.893-15.388c-0.238,0.238-24.268,23.726-62.723,12.938   l-0.579,2.068C488.02,1272.036,488.494,1272.164,488.959,1272.286z"/>
</g>
<g>
	<path fill="#0E538B" d="M663.173,1272.286c-38.892,10.17-61.893-15.388-61.893-15.388c0.238,0.238,24.268,23.726,62.723,12.938   l0.579,2.068C664.113,1272.036,663.639,1272.164,663.173,1272.286z"/>
</g>
<path opacity="0.5" fill="#0E538B" d="M503.888,1162.745c13.914-42.006,10.156-60.066-0.457-92.065  c-6.42-19.375-4.935-56.217-2.833-81.646c-5.724-13.514-15.948-21.934-15.948-21.934c2.924-0.971,11.275-14.92,19.089-28.994  c7.071,5.187,17.375,15.331,15.914,29.771c-2.205,21.694-19.341,72.53-7.346,91.379  C522.417,1075.134,530.094,1131.535,503.888,1162.745z"/>
<path opacity="0.5" fill="#0E538B" d="M748.417,1777.91c0,0-93.379-191.464-157.159-359.933c-1.816-23.35-4.867-56.891,9.779-68.555  C601.037,1349.422,756.619,1637.488,748.417,1777.91z"/>
<path opacity="0.5" fill="#0E538B" d="M565.428,1777.099c-28.331,0-45.775,0-45.775,0  c-55.395-251.771-59.838-398.089-53.795-476.594C479.6,1370.465,558.128,1769.148,565.428,1777.099z"/>
<path opacity="0.2" fill="#2994F3" d="M706.382,610.609L376.681,722.881c-3.681,1.253-7.717-0.733-8.971-4.413L250.391,373.945  c-1.253-3.681,0.733-7.717,4.413-8.971l329.702-112.272c3.681-1.253,7.718,0.732,8.971,4.413l117.319,344.522  C712.049,605.319,710.063,609.356,706.382,610.609z"/>
<path fill="#F0F3F9" d="M687.683,600.438L385.287,703.411c-3.376,1.15-7.078-0.672-8.228-4.047L269.457,383.374  c-1.15-3.376,0.672-7.079,4.047-8.228L575.9,272.172c3.376-1.149,7.079,0.672,8.228,4.048L691.73,592.209  C692.88,595.586,691.058,599.288,687.683,600.438z"/>
<g>
	<polygon opacity="0.2" fill="#2994F3" points="624.858,547.97 583.232,562.073 555.708,571.249 551.121,572.779 528.864,580.254    444.422,608.626 398.209,624.256 381.049,572.265 335.345,434.136 318.695,383.846 545.684,308.75 567.431,374.331    594.276,455.884 594.446,455.884 606.509,492.751  "/>
	<path opacity="0.3" fill="#2A94F5" d="M624.858,547.97l-41.627,14.104l-27.524,9.175l-4.587,1.53l-22.257,7.475l-84.442,28.372   l-46.213,15.63l-17.161-51.991l-45.704-138.128l30.922-10.196l18.01,54.878l23.276-7.645l-29.563-89.199l30.922-10.191   l6.966,21.408l2.378,6.794v0.17l2.209,6.628l0.17,0.676c0,0,0,0.17,0.169,0.34l0.51,1.53l1.019,3.057c-0.17,0,0,0.17,0,0.17   l1.02,3.227l3.738-1.187l24.126-7.989l-2.039-6.284l-0.681-2.037l-3.228-9.515l-0.509-1.871l-0.17-0.34l4.758-1.531   c0.169,0,0.169,0,0.169,0l25.996-8.661l16.65,50.461l15.801-5.268l20.219-6.624l-8.155-24.98l47.402-15.629l27.015,81.554   l12.063,36.867L624.858,547.97z"/>
	<g>
		<path fill="#0E538B" d="M594.446,455.884h-0.17c-9.514-5.608-22.427-11.046-39.587-13.763    c-25.654-4.078-42.306-3.907-46.213-18.52c-0.17-0.676-0.34-1.187-0.51-2.037c-5.437-17.33-31.941-71.188-67.11-42.305    c0,0-7.816-0.851-10.535,0.68c0,0,2.549-0.34,4.247,0.51c-4.927,1.356-11.892,4.078-16.65,9.171    c-0.849,0.851-1.528,2.041-2.039,3.572c-1.36,3.227-2.209,7.645-2.549,12.743v1.526c-0.169,3.397-0.169,6.799,0,10.536    c0,0.17,0,0.17,0,0.17c0.34,6.794,1.19,14.103,2.549,21.408c0,0,0,0,0,0.17c0.51,2.547,1.019,4.754,1.529,7.135    c0,0.17,0,0.17,0,0.34c4.247,18.01,11.383,35.681,21.238,46.042c3.058,3.398,6.286,5.778,10.024,7.475    c-1.869-1.867-4.078-4.588-6.626-8.661c-1.869-3.231-4.078-7.309-6.287-12.407c1.7,2.891,4.248,7.479,7.476,11.892    c2.889,3.908,6.286,7.989,10.024,10.706c14.611,3.907,36.699,14.273,57.427,25.826c4.586,2.547,9.004,5.098,13.422,7.815    c7.476,4.417,14.442,8.835,20.388,13.083c0.17,0,0.17,0.17,0.34,0.17c10.873,7.645,18.349,14.269,19.199,17.841    c0,0,4.078-7.479,10.024-18.181l-1.869-12.573c0.509,0.51,1.02,1.36,1.699,2.377c0.51,1.531,1.189,3.061,1.87,4.758    c0.169,0.51,0.339,1.021,0.509,1.36c9.005-15.97,21.067-37.207,30.243-51.991L594.446,455.884z"/>
		<path fill="#C88D94" d="M455.159,502.665c3.292-3.1-10.055-35.419-10.055-35.419l30.805-17.43    c3.305,13.164,10.944,29.433,15.304,28.893c0.141-0.018-2.03,14.608-10.818,20.437    C471.043,505.35,455.039,502.778,455.159,502.665z"/>
		<path fill="#575BA3" d="M453.138,387.305c0,0-21.846-10.192-33.541,13.082C419.597,400.387,429.497,394.867,453.138,387.305z"/>
		<path fill="#0E538B" d="M476.27,446.345c0,0,4.357-17.432,2.471-30.482c-1.346-9.317-16.615-40.455-47.841-24.918    c0,0-9.211,4.086-16.161,13.089c-5.528,7.16-12.368,20.934,8.529,45.601l6.163,8.629L476.27,446.345z"/>
		<path fill="#DCABB0" d="M583.232,562.073l-27.524,9.175c-3.567-7.139-7.306-14.613-10.704-21.408    c-0.169-0.34-0.339-0.51-0.509-0.851c-2.039-4.248-4.077-8.325-5.777-11.722c-3.567-6.964-5.776-11.552-5.776-11.552l7.306-3.401    l22.087-10.021c0,0,0.34,0.506,1.19,2.206c1.359,3.062,4.417,10.026,10.364,24.125c0.51,1.531,1.189,3.061,1.87,4.758    c0.169,0.51,0.339,1.021,0.509,1.36C578.305,549.67,580.684,555.449,583.232,562.073z"/>
		<path fill="#DCABB0" d="M425.398,499.452l0.093,0.364l11.834,46.699c0,0-4.919,10.949-10.279,22.229    c-0.095,0.194-0.186,0.387-0.277,0.58l-0.002,0.004c-3.732,7.834-7.637,15.738-10.221,20.158    c-3.557,6.089-16.275,22.732-20.457,28.164l-15.018-45.418c4.331-10.015,11.014-24.783,18.332-38.456    c8.667-16.194,18.218-30.85,25.804-34.237c0.06-0.031,0.121-0.056,0.178-0.082L425.398,499.452z"/>
		<path fill="#FFBE55" d="M545.004,549.841c-0.169-0.34-0.169-0.51-0.169-0.681c-1.182-5.066-2.028-9.964-2.873-14.857    l22.955-21.109c-14.022-24.24-26.56-33.268-27.558-33.963c0-0.042,0-0.071,0-0.071c-13.083-4.414-33.301-4.928-48.422-1.696    c-0.137,0-0.279,0.107-0.505,0.149c-0.068,0.001-0.108,0.002-0.11,0.002l0.007,0.01c-0.025,0.002-0.045,0.008-0.071,0.008    c-1.699,5.948-5.607,12.063-14.441,14.779c-9.005,2.721-20.484-3.908-20.994-4.248c-3.228,1.02-7.04,2.381-9.589,3.397    c-0.339,0.174-0.85,0.34-1.19,0.515c-1.189,0.336-2.378,0.846-3.397,1.186c-10.704,4.248-13.423,5.778-13.423,5.778v0.033    c-0.669,0.121-9.485,2.245-27.859,32.4c0,0,26.461,29.563,29.402,37.854l0.327-0.462v0.002c0.849,4.587,1.869,9.175,3.058,13.593    c0.85,2.887,6.965,13.763,14.271,26.165l84.442-28.372l22.257-7.475c-1.7-5.268-3.228-10.536-4.417-15.804    C546.024,554.598,545.514,552.217,545.004,549.841z"/>
		<path opacity="0.2" fill="#D1872B" d="M551.121,572.779l-22.257,7.475c-7.476-11.722-14.442-26.166-17.5-40.439    c-1.189-6.118-1.359-9.852-0.679-11.722c1.528-5.608,9.004,2.211,13.422,7.815c1.869,2.211,3.228,4.077,3.568,4.587    c0,0,7.985,6.625,19.029,16.48C547.893,562.243,549.421,567.511,551.121,572.779z"/>
		<path fill="#DAA9AE" d="M442.177,477.899c0,0,41.415-12.94,32.959-38.608c-8.456-25.667-8.805-44.623-35.605-37.446    c-26.8,7.177-28.685,18.655-27.946,27.909C412.323,439.007,431.186,480.604,442.177,477.899z"/>
		<path fill="#0E538B" d="M420.563,407.419c0,0,21.232,26.372,40.011,25.1c18.78-1.272,24.754-8.393,24.754-8.393    s-16.763-6.156-25.605-23.655C459.722,400.472,424.333,390.279,420.563,407.419z"/>
		<path fill="#0E538B" d="M424.167,408.939c0,0-6.2,9.505-6.093,16.718c0.107,7.213,3.631,20.968-0.44,21.807    c0,0-15.262-17.65-9.541-32.381C414.16,399.461,424.167,408.939,424.167,408.939z"/>
	</g>
</g>
<g>
	<path fill="#CCE9FF" d="M2135.577,633.403v-88.76c0-7.55,6.178-13.728,13.729-13.728h253.958c7.55,0,13.728,6.178,13.728,13.728   v88.76c0,7.55-6.178,13.728-13.728,13.728h-177.702l-82.703,68.261l28.837-68.261h-22.39   C2141.754,647.131,2135.577,640.953,2135.577,633.403z"/>
	<g>
		<g>
			<path opacity="0.2" fill="#2994F3" d="M2233.858,585.417c0,8.484-2.674,16.324-7.225,22.74c-0.086,0.116-0.173,0.241-0.26,0.356     c-0.153,0.231-0.308,0.433-0.461,0.645c-1.386,1.828-2.935,3.54-4.617,5.098c-0.404,0.385-0.828,0.76-1.261,1.116     c-1.481,1.27-3.059,2.434-4.723,3.463c-0.135,0.096-0.279,0.183-0.423,0.27c-0.674,0.423-1.348,0.798-2.059,1.164     c-0.972,0.51-1.963,0.991-2.973,1.423c-0.52,0.221-1.049,0.423-1.578,0.625c-4.299,1.616-8.955,2.491-13.803,2.491     c-6.975,0-13.535-1.818-19.22-5.002c-0.49-0.269-0.972-0.558-1.442-0.847c-0.202-0.115-0.395-0.24-0.587-0.375     c-0.809-0.51-1.597-1.067-2.366-1.645c-3.3-2.472-6.195-5.454-8.581-8.821c-0.99-1.404-1.895-2.876-2.693-4.405     c-2.886-5.464-4.502-11.697-4.502-18.296c0-21.759,17.642-39.381,39.392-39.381     C2216.235,546.035,2233.858,563.658,2233.858,585.417z"/>
			<g>
				<path fill="#0E538B" d="M2220.217,604.366c-3.02-6.637-13.399-6.781-9.945-14.275c3.462-7.493,2.02-29.983-15.132-32.176      c-0.77-0.096-1.51-0.164-2.222-0.183c-14.554-0.433-15.439,14.948-15.478,15.814v0.01c0,0.019,0,0.029,0,0.029      s0.01,0.077,0.038,0.231l0.029,0.144c0.404,2.837,2.741,21.229-3.78,27.809c-0.173,0.183-0.365,0.356-0.558,0.519      c-1.924,1.626-1.741,3.261-0.924,5.397v0.01c0.645,1.732,1.712,3.799,2.386,6.474c0.115,0.471,0.23,0.962,0.308,1.472      c0.24,1.26,0.365,2.636,0.317,4.165c5.685,3.184,12.245,5.002,19.22,5.002c4.848,0,9.504-0.875,13.803-2.491      c0.529-0.202,1.059-0.404,1.578-0.625c1.01-0.433,2.001-0.914,2.973-1.423c0.711-0.366,1.385-0.741,2.059-1.164      c0.144-0.087,0.288-0.173,0.423-0.27c1.664-1.029,3.241-2.193,4.723-3.463c0.289-0.837,0.549-1.741,0.76-2.684      C2221.362,610.08,2221.487,607.146,2220.217,604.366z"/>
				<path fill="#C88D94" d="M2208.444,601.808c-1.828-0.395-3.598-0.731-5.281-1c-0.028-0.01-0.058-0.01-0.077-0.01      c-0.019,0-0.028,0-0.028,0c-0.51-0.086-1.009-0.163-1.499-0.231c-0.035-0.009-1.455-0.475-2.136-15.5l-12.762,3.886      c0,0,0.961,5.612-0.923,10.806c-1.845,0.096-3.276,0.24-4.228,0.365c-0.077,0.01-0.154,0.01-0.222,0.02      c-0.663,0.086-1.058,0.144-1.164,0.144c0,0-0.913,1.962-2.164,5.021c-0.01,0.01-0.01,0.019-0.01,0.019      c-0.98,2.415-2.184,5.503-3.318,8.84c-0.49,1.443-0.962,2.924-1.404,4.415c0.192,0.135,0.385,0.26,0.587,0.375      c0.471,0.289,0.952,0.577,1.442,0.847c5.685,3.184,12.245,5.002,19.22,5.002c4.848,0,9.504-0.875,13.803-2.491      c0.309-1.731,0.606-3.396,0.914-5.002c0-0.01,0-0.02,0-0.02c1.559-8.378,2.924-14.621,2.924-14.621      C2210.868,602.356,2209.636,602.067,2208.444,601.808z"/>
				<path fill="#FEBE56" d="M2220.795,612.687c-1.261-3.935-2.328-6.782-2.953-7.657c-0.049-0.067-0.097-0.125-0.135-0.173v-0.01      c-1.299-1.462-4.714-2.462-7.927-3.078c-0.153-0.029-0.288-0.058-0.414-0.086c-0.163-0.029-0.308-0.058-0.433-0.086      c-0.308-0.058-0.48-0.087-0.48-0.087c-2.578-0.442-4.781-0.654-5.291-0.702c-0.028-0.01-0.058-0.01-0.077-0.01      c-0.019,0-0.028,0-0.028,0c-0.347,0.539-1.203,1.251-2.376,2.039c-4.242,2.857-12.563,6.83-15.525,8.224h-0.01      c-0.673,0.317-1.067,0.5-1.067,0.5c-1.106-1.375-1.741-3.348-2.106-5.271c0,0,0,0,0-0.009c-0.049-0.279-0.097-0.568-0.135-0.847      v-0.01c-0.434-2.818-0.327-5.3-0.327-5.3c-0.077,0.01-0.154,0.01-0.222,0.02c-0.73,0.048-1.395,0.115-2.001,0.211      c0-0.01,0-0.019,0-0.019s-1.674-0.145-5.56,1.433c-2.693,1.077-6.444,2.992-11.447,6.349c2.386,3.367,5.281,6.349,8.581,8.821      c0.77,0.577,1.558,1.135,2.366,1.645c0.192,0.135,0.385,0.26,0.587,0.375c0.471,0.289,0.952,0.577,1.442,0.847      c5.685,3.184,12.245,5.002,19.22,5.002c4.848,0,9.504-0.875,13.803-2.491c0.529-0.202,1.059-0.404,1.578-0.625      c1.01-0.433,2.001-0.914,2.973-1.423c0.711-0.366,1.385-0.741,2.059-1.164c0.144-0.087,0.288-0.173,0.423-0.27      c1.664-1.029,3.241-2.193,4.723-3.463c0.433-0.356,0.856-0.731,1.261-1.116C2221.122,613.716,2220.958,613.187,2220.795,612.687      z"/>
				<path fill="#DEADB2" d="M2184.177,592.199c0,0,15.567,0.711,15.861-8.99c0.294-9.702,2.501-16.144-7.427-17.009      c-9.927-0.864-11.971,2.779-12.856,5.994C2178.87,575.408,2180.135,591.764,2184.177,592.199z"/>
				<path fill="#0E538B" d="M2202.49,564.646c-1.946-3.922-9.572-6.925-9.572-6.925s-7.894-1.477-14.216,7.747      c-2.723,3.974-1.282,10.649,0.991,14.283c0,0,1.452-8.843,5.998-11.478c0.861-0.5,1.655-1.19,2.377-1.979      c0.689,1.399,2.189,3.569,5.446,6.189c5.801,4.666,6.104,14.527,6.104,14.527S2207.328,574.396,2202.49,564.646z"/>
			</g>
		</g>
	</g>
	<g>
		<path opacity="0.2" fill="#2994F3" d="M2262.25,569.245h128.577c2.646,0,4.81-2.164,4.81-4.81c0-2.645-2.164-4.81-4.81-4.81    H2262.25c-2.646,0-4.81,2.165-4.81,4.81C2257.441,567.081,2259.605,569.245,2262.25,569.245z"/>
		<path opacity="0.2" fill="#2994F3" d="M2390.828,581.711H2262.25c-2.646,0-4.81,2.165-4.81,4.81c0,2.646,2.164,4.81,4.81,4.81    h128.577c2.646,0,4.81-2.164,4.81-4.81C2395.637,583.876,2393.473,581.711,2390.828,581.711z"/>
		<path opacity="0.2" fill="#2994F3" d="M2390.828,601.596H2262.25c-2.646,0-4.81,2.164-4.81,4.81s2.164,4.81,4.81,4.81h128.577    c2.646,0,4.81-2.164,4.81-4.81S2393.473,601.596,2390.828,601.596z"/>
	</g>
</g>
<path fill="#0E538B" d="M429.542,630.103c-8.486,1.209-7.764,8.478-7.764,8.478s-3.892-6.181-11.333-1.926  c-7.441,4.254-4.173,13.061-0.876,16.184c3.297,3.123,20.394,9.596,20.394,9.596s9.522-15.605,10.207-20.095  C440.853,637.851,438.027,628.893,429.542,630.103z"/>
<path opacity="0.2" fill="#2994F3" d="M537.414,616.913l-70.213,23.91c-3.936,1.34-8.254-0.783-9.594-4.72l0,0  c-1.34-3.937,0.784-8.254,4.72-9.594l70.213-23.909c3.937-1.341,8.254,0.783,9.594,4.72l0,0  C543.475,611.255,541.351,615.572,537.414,616.913z"/>
<g>
	<path opacity="0.2" fill="#2994F3" d="M2888.738,571.35l-387.491,0.21c-4.326,0.002-7.867-3.535-7.869-7.86l-0.22-404.911   c-0.003-4.326,3.535-7.867,7.86-7.869l387.492-0.209c4.325-0.003,7.867,3.535,7.869,7.86l0.22,404.911   C2896.601,567.807,2893.064,571.348,2888.738,571.35z"/>
	<path fill="#F0F3F9" d="M2872.682,553.94l-355.399,0.192c-3.968,0.003-7.216-3.242-7.218-7.209l-0.201-371.376   c-0.002-3.967,3.242-7.215,7.21-7.217l355.4-0.192c3.967-0.002,7.215,3.242,7.218,7.209l0.2,371.376   C2879.894,550.69,2876.65,553.938,2872.682,553.94z"/>
	<g>
		<polygon opacity="0.2" fill="#2994F3" points="2825.292,476.179 2776.396,476.13 2744.118,475.94 2738.739,475.91     2712.618,475.814 2613.511,475.465 2559.237,475.381 2559.777,414.472 2561.092,252.609 2561.561,193.674 2827.549,195.848     2826.975,272.713 2826.051,368.23 2826.23,368.29 2825.736,411.445   "/>
		<path opacity="0.3" fill="#2A94F5" d="M2825.292,476.179l-48.896-0.049l-32.278-0.19l-5.379-0.03l-26.121-0.096l-99.106-0.349    l-54.274-0.083l0.54-60.909l1.315-161.863l36.223,0.332l-0.679,64.254l27.256,0.282l0.798-104.543l36.222,0.336l-0.328,25.044    l0.073,8.008l-0.062,0.179l-0.046,7.773l-0.063,0.773c0,0-0.062,0.179,0.056,0.419l-0.01,1.795l-0.021,3.585    c-0.179-0.061-0.061,0.179-0.061,0.179l-0.082,3.764l4.363,0.089l28.273,0.223l0.103-7.35l0.013-2.389l0.006-11.179l0.134-2.153    l-0.058-0.419l5.561,0.091c0.178,0.061,0.178,0.061,0.178,0.061l30.483,0.185l-0.529,59.114l18.53,0.109l23.669,0.261    l0.354-29.232l55.528,0.509l-0.745,95.578l-0.494,43.154L2825.292,476.179z"/>
		<g>
			<path fill="#0E538B" d="M2826.23,368.29l-0.179-0.06c-8.015-9.315-19.669-19.666-36.771-28.672     c-25.563-13.481-43.164-19.264-42.048-36.056c0.063-0.773,0.066-1.371,0.192-2.328c0.478-20.202-8.156-86.423-55.543-68.592     c0,0-7.929-3.694-11.341-3.056c0,0,2.807,0.555,4.291,2.059c-5.675-0.336-13.986,0.037-20.822,3.699     c-1.199,0.592-2.341,1.603-3.426,3.032c-2.588,2.912-5.064,7.261-7.248,12.51l-0.546,1.608     c-1.395,3.518-2.613,7.101-3.773,11.098c-0.061,0.179-0.061,0.179-0.061,0.179c-2.074,7.279-3.797,15.282-4.98,23.463     c0,0,0,0-0.061,0.179c-0.374,2.865-0.629,5.372-0.943,8.063c-0.061,0.179-0.061,0.179-0.122,0.358     c-1.975,20.493-0.785,41.661,5.885,56.104c2.005,4.673,4.553,8.337,7.882,11.462c-1.3-2.635-2.652-6.293-3.879-11.496     c-0.811-4.073-1.678-9.159-2.179-15.32c0.755,3.654,1.796,9.399,3.616,15.204c1.645,5.15,3.762,10.666,6.727,14.867     c13.992,9.348,33.546,28.175,51.244,47.766c3.919,4.325,7.659,8.594,11.34,13.038c6.293,7.33,12.049,14.477,16.791,21.081     c0.18,0.061,0.119,0.24,0.298,0.301c8.716,11.946,14.219,21.6,13.835,25.666c0,0,6.974-6.417,17.068-15.561l2.533-13.913     c0.354,0.72,0.587,1.798,0.938,3.112c-0.011,1.795,0.157,3.651,0.266,5.681c-0.004,0.598-0.008,1.196,0.05,1.616     c15.203-13.598,35.514-31.649,50.472-43.936L2826.23,368.29z"/>
			<path fill="#C88D94" d="M2662.762,367.694c4.576-2.087,2.091-40.909,2.091-40.909l38.688-7.33     c2.576,12.73,0.99,34.922,5.775,35.914c0.154,0.032-7.369,14.66-18.713,17.654     C2678.532,376.21,2662.594,367.771,2662.762,367.694z"/>
			<path fill="#575BA3" d="M2702.381,245.73c0,0-19.805-18.832-40.457,1.496C2661.924,247.226,2674.772,245.231,2702.381,245.73z"/>
			<path fill="#0E538B" d="M2705.165,315.929c0,0,10.831-16.802,13.518-31.224c1.917-10.296-3.017-48.563-41.472-43.377     c0,0-11.165,1.006-21.71,8.001c-8.387,5.563-20.522,17.622-7.344,51.088l3.402,11.296L2705.165,315.929z"/>
			<path fill="#DCABB0" d="M2776.396,476.13l-32.278-0.19c-1.201-8.797-2.463-18.009-3.609-26.383     c-0.057-0.418-0.175-0.659-0.232-1.078c-0.626-5.204-1.313-10.229-1.888-14.417c-1.264-8.613-1.948-14.237-1.948-14.237     l8.914-0.967l26.854-2.647c0,0,0.177,0.655,0.463,2.75c0.336,3.712,1.063,12.143,2.278,29.123     c-0.011,1.795,0.157,3.651,0.266,5.681c-0.004,0.598-0.008,1.196,0.05,1.616C2775.647,461.301,2776.083,468.24,2776.396,476.13z"/>
			<path fill="#DCABB0" d="M2632.563,353.654l-0.032,0.417l-4.256,53.428c0,0-9.103,9.771-18.786,19.734     c-0.17,0.17-0.334,0.341-0.5,0.511l-0.004,0.004c-6.735,6.916-13.68,13.843-17.983,17.573     c-5.928,5.14-25.284,18.118-31.633,22.342l0.443-53.219c8.146-8.998,20.476-22.161,33.078-33.943     c14.928-13.956,30.236-25.973,39.44-26.825c0.073-0.012,0.146-0.015,0.217-0.023L2632.563,353.654z"/>
			<path fill="#FFBE55" d="M2742.867,432.101l31.738-14.017c-6.091-30.554-16.064-44.553-16.866-45.643     c0.015-0.044,0.025-0.075,0.025-0.075c-12.201-9.333-33.314-17.115-50.399-19.125c-0.145-0.049-11.001,10.634-21.28,10.333     c-10.459-0.358-20.176-11.512-20.592-12.053c-3.766-0.081-8.27,0.049-11.318,0.207c-0.42,0.062-1.016,0.054-1.438,0.116     c-1.371-0.072-2.807,0.039-4.003,0.033c-12.796,0.642-16.208,1.281-16.208,1.281l-0.012,0.034     c-0.748-0.112-10.796-1.03-40.946,24.154c0,0,17.288,40.615,17.416,50.401l0.511-0.37l-0.001,0.002     c-0.748,5.137-1.317,10.334-1.646,15.413c-0.14,3.345,2.408,16.992,5.663,32.671l99.106,0.349l26.121,0.096     c0.096-6.158,0.372-12.254,1.005-18.229c0.136-2.747,0.451-5.438,0.765-8.124c-0.057-0.418,0.005-0.598,0.065-0.777     C2741.143,443.02,2742.005,437.558,2742.867,432.101z"/>
			<path fill="#DAA9AE" d="M2657.955,336.959c0,0,48.258,1.198,48.541-28.866c0.284-30.064,6.703-50.157-24.097-52.193     c-30.799-2.036-36.895,9.38-39.43,19.392C2640.434,285.303,2645.409,335.872,2657.955,336.959z"/>
			<path fill="#0E538B" d="M2695.927,256.697c-10.431-5.675-27.917-12.88-35.105-2.329c-3.14-2.738-8.755-4.747-16.278,4.218     c-11.302,13.469-1.545,37.525-1.545,37.525c4.589,0.574,5.802-15.177,8.271-22.813c1.863-5.759,7.97-11.605,10.86-14.132     c4.13,9.523,15.521,32.34,31.451,36.578c20.236,5.384,29.079,0.023,29.079,0.023s-12.098-9.776-16.997-26.99     C2704.192,263.608,2700.649,259.267,2695.927,256.697z"/>
			<path opacity="0.2" fill="#D1872B" d="M2738.739,475.91l-26.121-0.096c-3.678-15.024-5.844-32.732-3.955-48.862     c0.938-6.871,2.096-10.864,3.482-12.591c3.617-5.36,8.693,5.553,11.34,13.038c1.176,2.997,8.154,15.947,16.259,30.283     C2739.111,463.656,2738.834,469.752,2738.739,475.91z"/>
		</g>
	</g>
	<path opacity="0.2" fill="#2994F3" d="M2817.823,518.836l-188.402,0.102c-4.626,0.002-8.413-3.78-8.416-8.407l0,0   c-0.002-4.626,3.78-8.414,8.407-8.416l188.402-0.102c4.626-0.002,8.413,3.78,8.416,8.407l0,0   C2826.233,515.046,2822.45,518.833,2817.823,518.836z"/>
	<path fill="#0E538B" d="M2594.198,496.048h-30.807c-2.222,0-4.022,1.801-4.022,4.022v19.999c0,2.221,1.801,4.022,4.022,4.022h6.002   c1.141,0,1.94,1.128,1.563,2.205l-1.172,3.345l13.271-4.638c1.727-0.604,3.543-0.912,5.372-0.912h5.771   c2.222,0,4.022-1.801,4.022-4.022V500.07C2598.22,497.849,2596.419,496.048,2594.198,496.048z"/>
</g>
</svg>